<?xml version="1.0" encoding="UTF-8"?>
<svg width="53px" height="50px" viewBox="0 0 53 50" version="1.1" xmlns="http://www.w3.org/2000/svg" xmlns:xlink="http://www.w3.org/1999/xlink">
    <!-- Generator: Sketch 63.1 (92452) - https://sketch.com -->
    <title>hover-fh@1x</title>
    <desc>Created with Sketch.</desc>
    <defs>
        <linearGradient x1="72.1879135%" y1="20.223106%" x2="21.2411557%" y2="79.6271471%" id="linearGradient-1">
            <stop stop-color="#8F7249" offset="0%"></stop>
            <stop stop-color="#CDAE74" offset="31.9863809%"></stop>
            <stop stop-color="#FFE0A7" offset="65.904772%"></stop>
            <stop stop-color="#906F40" offset="100%"></stop>
        </linearGradient>
        <linearGradient x1="77.5058962%" y1="84.6020882%" x2="12.9053656%" y2="16.6181804%" id="linearGradient-2">
            <stop stop-color="#946F3B" offset="0%"></stop>
            <stop stop-color="#FFE0A7" offset="53.1276394%"></stop>
            <stop stop-color="#946F3B" offset="100%"></stop>
        </linearGradient>
    </defs>
    <g id="Symbols" stroke="none" stroke-width="1" fill="none" fill-rule="evenodd">
        <g id="nav" transform="translate(-291.000000, -26.000000)">
            <g id="NAV-/-hover">
                <g id="FH" transform="translate(291.000000, 4.000000)">
                    <g id="hover-fh">
                        <g transform="translate(0.000000, 22.000000)">
                            <path d="M30.95,0.5 L3.3075,0.5 C2.53223028,0.5 1.83035528,0.814240141 1.32229771,1.32229771 C0.814240141,1.83035528 0.5,2.53223028 0.5,3.3075 L0.5,27.95 C0.5,33.9008682 2.91206591,39.2883682 6.81184887,43.1881511 C10.7116318,47.0879341 16.0991318,49.5 22.05,49.5 L49.6925,49.5 C50.4677697,49.5 51.1696447,49.1857599 51.6777023,48.6777023 C52.1857599,48.1696447 52.5,47.4677697 52.5,46.6925 L52.5,22.05 C52.5,16.0991318 50.0879341,10.7116318 46.1881511,6.81184887 C42.2883682,2.91206591 36.9008682,0.5 30.95,0.5 Z" id="Rectangle" stroke="url(#linearGradient-2)" fill="url(#linearGradient-1)"></path>
                            <path d="M35.0015254,28.2634561 C35.3812735,29.8726628 35.7641167,31.4700642 36.1272781,33.0731921 C36.1630705,33.2313288 36.1179134,33.4493725 36.0410114,33.5943826 C35.8211781,34.0090621 35.5655525,34.4003074 35.2416754,34.9373557 C35.7482443,34.9373557 36.1496583,34.9227313 36.5493263,34.9461655 C36.6694807,34.9533015 36.8450298,35.0318853 36.8928852,35.1357534 C37.677698,36.8386968 38.6557577,38.371434 40.1026892,39.6468355 C39.7146875,39.7359031 39.4156507,39.8213586 39.1118522,39.8713985 C36.9398677,40.2282854 34.899545,39.864703 33.0402474,38.4996173 C32.938267,38.4248217 32.7645432,38.3919609 32.6487537,38.4305481 C29.9102818,39.3444816 27.1485568,39.3280072 24.3708799,38.7028604 C22.5204709,38.286419 20.7657728,37.5670069 19.0738501,36.6430301 C18.81132,36.4996058 18.7025938,36.3301044 18.7099745,36.0049329 C18.7507666,34.2135386 19.2661447,32.6462669 20.4170553,31.3778251 C21.2655959,31.9417434 22.0799314,32.5372891 22.937678,33.0420052 C24.8999083,34.1970642 26.9691188,34.9757666 29.223402,34.9145382 C29.8783782,34.8967423 30.5325608,34.7423937 31.1807912,34.6119199 C31.3023741,34.5874285 31.4569716,34.3960787 31.4893514,34.2521258 C31.8387832,32.6994783 32.3693194,31.2433868 33.2626203,29.970364 C33.7679194,29.2503352 34.3583742,28.641751 35.0015254,28.2634561 Z M22.6181103,10.6493035 C25.3622169,9.90624297 28.1382271,9.79226558 30.9250306,10.3522415 C31.4938195,10.4665793 32.0595926,10.6009194 32.7144101,10.7453509 C31.2062109,13.0116539 29.7504702,15.1991189 28.2521119,17.4506455 C30.4367944,17.685538 32.5487018,17.9125017 34.7456061,18.1486557 C34.6192615,18.2723639 34.5461689,18.3607527 34.4597435,18.4261658 C32.5840973,19.84345 30.6282954,21.0870199 28.5078963,21.9772149 C28.2756031,22.074794 27.5220591,22.3246432 27.3734137,22.3674411 C26.9219072,22.4972558 26.4698046,22.6030426 26.0172102,22.6620611 C25.4783849,23.0965487 24.9408779,23.534533 24.4128715,23.9881032 C22.4529768,25.6717273 20.5994413,27.4950051 19.055821,29.7299179 C17.4480645,32.0576317 16.7876909,34.6987525 17.0939411,37.6820432 C17.0984459,37.7254589 17.0913452,37.7706835 17.0897418,37.8150942 L16.9833826,37.8535351 L16.9833826,37.8535351 C16.8510636,37.3232306 16.6708714,36.8024233 16.5946716,36.2611745 C16.2868179,34.0731144 16.814338,32.1379508 17.8834269,30.3522094 C19.5498986,27.5686309 21.7814558,25.5457314 24.1636566,23.7254383 C24.6346495,23.3655924 25.1188678,23.0298974 25.6062599,22.7001686 C24.9705071,22.7423435 24.3339637,22.6768347 23.6968012,22.4427653 C21.7750457,21.7364658 20.5653277,20.2789968 20.1746276,18.0062965 C20.0403468,17.2253036 20.1663739,16.4608892 20.4211266,15.7166574 C19.7659917,16.4748548 19.250931,17.3254055 19.0394308,18.3566081 C18.9643541,18.7225071 18.7864241,18.9155929 18.5485756,19.1142649 C16.4124627,20.8986193 14.5173728,22.9499421 13.1076622,25.5277234 C12.3093578,26.9874449 11.7571557,28.5536655 11.651604,30.2841397 C11.5170057,32.4918773 12.1552365,34.432196 13.3815411,36.1077989 C14.0446916,37.0139417 14.8166477,37.8174598 15.6310625,38.7747798 C14.8462498,38.3110315 14.1277045,37.9461236 13.4624112,37.4826456 C10.6400534,35.516558 8.79892983,32.7446098 8.18926945,29.0019165 C7.61230628,25.4601478 8.3711676,22.2652669 10.2371315,19.4045694 C13.3440028,14.6411252 17.6372595,11.9979309 22.6181103,10.6493035 Z M25.9885813,30.9148866 C26.192726,31.3250672 26.0482781,31.7458244 25.5743224,32.1563231 C25.2427343,32.4436404 24.9149451,32.6073786 24.4261557,32.3819304 C23.5731259,31.9886087 22.6934135,31.6398995 21.8249169,31.2724229 C22.7400855,30.7528979 23.6416867,30.4474493 24.6208936,30.352101 C25.2771051,30.2882439 25.7855221,30.5069326 25.9885813,30.9148866 Z M18.1073898,21.7555421 C18.7670088,23.8070268 20.2378852,23.6072628 21.8249169,23.3846148 C21.5925267,23.5845583 21.4476507,23.7190804 21.2941825,23.8397824 C19.4590081,25.2831805 17.6184236,26.719848 15.550859,27.7217192 C15.1182202,27.9313547 14.6524056,28.0948632 14.1878639,28.1706946 C13.3802662,28.3026142 13.0965608,27.8843303 13.4979331,27.0973894 C13.936857,26.2369504 14.4510432,25.4138437 15.0078727,24.6437742 C15.7628822,23.5996348 16.6505157,22.6994405 17.6726029,21.9835746 C17.7735626,21.9128585 17.8789775,21.8499499 17.9847902,21.7886566 C18.017807,21.7695418 18.0587,21.7680162 18.1073898,21.7555421 Z M34.87385,12.3405701 C39.2456623,11.5878008 42.8252787,12.5886794 43.7522741,15.1947686 C45.0635926,18.8814416 40.9758885,22.2831883 36.0430339,23.9152813 C33.9507152,24.6075329 31.9812281,24.7440547 30.3325249,24.4440639 C31.6241222,24.4571804 33.0690819,24.233843 34.5888409,23.7310013 C39.3633464,22.1513417 43.3743531,19.0263723 42.2145633,15.7949775 C41.4261315,13.5982264 38.2452189,12.7834786 34.2554134,13.4227772 C34.2675099,13.423524 34.8510402,12.331934 34.87385,12.3405701 Z M24.1103576,12.9640808 C24.1103576,12.9640808 23.5172839,15.2202926 25.080243,15.5334826 C26.5792362,15.8337883 26.755579,13.8875229 26.755579,13.8875229 L26.755579,13.8875229 Z" id="icon-fh-hover" fill="#000000"></path>
                        </g>
                    </g>
                </g>
            </g>
        </g>
    </g>
</svg>