<?xml version="1.0" encoding="UTF-8"?>
<svg width="53px" height="50px" viewBox="0 0 53 50" version="1.1" xmlns="http://www.w3.org/2000/svg" xmlns:xlink="http://www.w3.org/1999/xlink">
    <!-- Generator: Sketch 63.1 (92452) - https://sketch.com -->
    <title>hover-live@1x</title>
    <desc>Created with Sketch.</desc>
    <defs>
        <linearGradient x1="72.1879135%" y1="20.223106%" x2="21.2411557%" y2="79.6271471%" id="linearGradient-1">
            <stop stop-color="#8F7249" offset="0%"></stop>
            <stop stop-color="#CDAE74" offset="31.9863809%"></stop>
            <stop stop-color="#FFE0A7" offset="65.904772%"></stop>
            <stop stop-color="#906F40" offset="100%"></stop>
        </linearGradient>
        <linearGradient x1="77.5058962%" y1="84.6020882%" x2="12.9053656%" y2="16.6181804%" id="linearGradient-2">
            <stop stop-color="#946F3B" offset="0%"></stop>
            <stop stop-color="#FFE0A7" offset="53.1276394%"></stop>
            <stop stop-color="#946F3B" offset="100%"></stop>
        </linearGradient>
        <circle id="path-3" cx="26.5" cy="24.5" r="19.5"></circle>
    </defs>
    <g id="Symbols" stroke="none" stroke-width="1" fill="none" fill-rule="evenodd">
        <g id="nav" transform="translate(-81.000000, -26.000000)">
            <g id="NAV-/-hover">
                <g id="LIVE" transform="translate(81.000000, 5.000000)">
                    <g id="hover-live">
                        <g transform="translate(0.000000, 21.000000)">
                            <path d="M30.95,0.5 L3.3075,0.5 C2.53223028,0.5 1.83035528,0.814240141 1.32229771,1.32229771 C0.814240141,1.83035528 0.5,2.53223028 0.5,3.3075 L0.5,27.95 C0.5,33.9008682 2.91206591,39.2883682 6.81184887,43.1881511 C10.7116318,47.0879341 16.0991318,49.5 22.05,49.5 L49.6925,49.5 C50.4677697,49.5 51.1696447,49.1857599 51.6777023,48.6777023 C52.1857599,48.1696447 52.5,47.4677697 52.5,46.6925 L52.5,22.05 C52.5,16.0991318 50.0879341,10.7116318 46.1881511,6.81184887 C42.2883682,2.91206591 36.9008682,0.5 30.95,0.5 Z" id="Rectangle" stroke="url(#linearGradient-2)" fill="url(#linearGradient-1)"></path>
                            <mask id="mask-4" fill="white">
                                <use xlink:href="#path-3"></use>
                            </mask>
                            <g id="Oval"></g>
                            <path d="M18.5196316,30.8705263 L21.3127895,35.7968421 C21.3127895,35.7968421 22.2980526,34.8115789 23.7759474,33.5815789 C25.2538421,32.35 26.3212105,31.8557895 26.3212105,31.8557895 C26.3212105,31.8557895 28.8664737,33.0068421 30.4248947,34.2368421 C31.9864737,35.4684211 32.397,35.9626316 32.397,35.9626316 L32.397,35.9626316 L32.2912105,50.0736842 L24.9254211,49.8368421 C24.9254211,49.8368421 22.0517368,46.8826316 20.8185789,44.6642105 C19.5885789,42.4473684 19.5048947,40.5605263 19.5048947,40.5605263 C19.5048947,40.5605263 15.4833158,40.6410526 14.5801579,36.2073684 C13.677,31.7736842 18.5196316,30.8705263 18.5196316,30.8705263 L18.5196316,30.8705263 Z M26.633862,5.57830065 L26.9778947,5.58226316 C33.4642105,5.74805263 35.5168421,14.1212105 36.7468421,17.9817368 C37.98,21.8391053 38.5547368,22.9901579 39.9505263,22.9901579 C41.3463158,22.9901579 41.8389474,21.5106842 41.8389474,21.5106842 C41.8389474,21.5106842 42.3315789,23.647 41.1,26.3564737 C39.8684211,29.0643684 38.3084211,29.4748947 38.3084211,29.4748947 C38.3084211,29.4748947 36.8526316,40.9143684 36.1547368,50.0091053 L36.1547368,50.0091053 L34.6342105,50.0012105 C34.9626316,45.3022632 35.5578947,40.5180526 35.8452632,37.6854211 C36.4184211,32.0201579 37.5694737,26.6848947 34.1194737,25.4517368 C30.6726316,24.2201579 28.0452632,29.6406842 28.0452632,29.6406842 L28.0452632,29.6406842 L28.3736842,25.0412105 C28.3736842,25.0412105 30.6726316,24.4664737 31.4936842,20.9359474 C32.3147368,17.407 28.8663158,14.2854211 28.8663158,14.2854211 C28.8663158,14.2854211 30.3442105,10.9191053 29.2768421,8.94857895 C29.2768421,8.94857895 29.6052632,13.0554211 26.0747368,16.0112105 C22.5442105,18.9654211 20.0810526,19.7059474 20.0810526,19.7059474 C20.0810526,19.7059474 19.9610526,21.2627895 21.3126316,23.1527895 C22.5442105,24.877 24.1042105,25.2054211 24.1042105,25.2054211 C24.1042105,25.2054211 24.1042105,28.6554211 20.6557895,28.9001579 C17.2073684,29.1464737 14.0873684,27.0133158 12.6915789,23.3991053 C11.2957895,19.7864737 12.4452632,17.9817368 12.4452632,17.9817368 C12.4452632,17.9817368 12.8557895,19.9506842 14.7442105,19.7059474 C16.6326316,19.4580526 16.4684211,16.5022632 17.0431579,13.3838421 C17.6178947,10.2622632 20.4915789,5.41963158 26.9778947,5.58226316 Z M23.3654211,39.1631579 C23.3654211,39.1631579 24.7706842,41.8584211 27.3980526,41.8584211 C30.0254211,41.8584211 31.0012105,39.1631579 31.0012105,39.1631579 L30.9982324,39.1672707 L30.990424,39.1796384 C30.8954016,39.3193948 30.1527107,40.3076103 27.9817706,40.5853994 L27.7248947,40.6142105 C25.1796316,40.8605263 23.3654211,39.1631579 23.3654211,39.1631579 Z M25.9659474,20.8295263 C26.1838421,20.7821579 26.9480526,20.2311053 27.3491053,20.659 C27.6901579,21.0237368 27.3854211,21.7216316 27.6412105,21.8984737 C28.0296316,22.1653158 28.4164737,21.5811053 28.4164737,21.5811053 C28.4164737,21.5811053 28.3691053,22.0926842 27.7375263,22.2142632 C27.6885789,22.2237368 27.6396316,22.2284737 27.5938421,22.2316316 C27.5796316,22.7226842 27.4154211,24.1595263 25.9659474,24.1800526 C24.2985789,24.2037368 24.2417368,22.3468947 24.2417368,22.0768947 C23.5912105,21.9395263 23.6117368,21.5337368 23.6117368,21.5337368 C23.6117368,21.5337368 23.8185789,21.9505789 24.2906842,21.8258421 C24.6554211,21.7279474 24.237,20.9053158 24.7280526,20.5879474 C25.1401579,20.3211053 25.7480526,20.8784737 25.9659474,20.8295263 Z M26.0385789,21.8479474 C25.7212105,21.8226842 25.4101579,21.9253158 25.0991053,22.009 C25.2380526,22.2995263 25.5459474,22.8300526 25.917,22.7953158 C26.2722632,22.7621579 26.5896316,22.3184737 26.7522632,22.0500526 C26.5185789,21.9616316 26.2880526,21.8700526 26.0385789,21.8479474 Z" id="icon-sexy---hover" fill="#000000" mask="url(#mask-4)"></path>
                        </g>
                    </g>
                </g>
            </g>
        </g>
    </g>
</svg>