<?xml version="1.0" encoding="UTF-8"?>
<svg width="53px" height="50px" viewBox="0 0 53 50" version="1.1" xmlns="http://www.w3.org/2000/svg" xmlns:xlink="http://www.w3.org/1999/xlink">
    <!-- Generator: Sketch 63.1 (92452) - https://sketch.com -->
    <title>hover-poker@1x</title>
    <desc>Created with Sketch.</desc>
    <defs>
        <linearGradient x1="72.1879135%" y1="20.223106%" x2="21.2411557%" y2="79.6271471%" id="linearGradient-1">
            <stop stop-color="#8F7249" offset="0%"></stop>
            <stop stop-color="#CDAE74" offset="31.9863809%"></stop>
            <stop stop-color="#FFE0A7" offset="65.904772%"></stop>
            <stop stop-color="#906F40" offset="100%"></stop>
        </linearGradient>
        <linearGradient x1="77.5058962%" y1="84.6020882%" x2="12.9053656%" y2="16.6181804%" id="linearGradient-2">
            <stop stop-color="#946F3B" offset="0%"></stop>
            <stop stop-color="#FFE0A7" offset="53.1276394%"></stop>
            <stop stop-color="#946F3B" offset="100%"></stop>
        </linearGradient>
    </defs>
    <g id="Symbols" stroke="none" stroke-width="1" fill="none" fill-rule="evenodd">
        <g id="nav" transform="translate(-151.000000, -26.000000)">
            <g id="NAV-/-hover">
                <g id="TB" transform="translate(151.000000, 5.000000)">
                    <g id="hover-poker">
                        <g transform="translate(0.000000, 21.000000)">
                            <path d="M30.95,0.5 L3.3075,0.5 C2.53223028,0.5 1.83035528,0.814240141 1.32229771,1.32229771 C0.814240141,1.83035528 0.5,2.53223028 0.5,3.3075 L0.5,27.95 C0.5,33.9008682 2.91206591,39.2883682 6.81184887,43.1881511 C10.7116318,47.0879341 16.0991318,49.5 22.05,49.5 L49.6925,49.5 C50.4677697,49.5 51.1696447,49.1857599 51.6777023,48.6777023 C52.1857599,48.1696447 52.5,47.4677697 52.5,46.6925 L52.5,22.05 C52.5,16.0991318 50.0879341,10.7116318 46.1881511,6.81184887 C42.2883682,2.91206591 36.9008682,0.5 30.95,0.5 Z" id="Rectangle" stroke="url(#linearGradient-2)" fill="url(#linearGradient-1)"></path>
                            <path d="M37.1895352,41.0181327 L39.2388491,43.0523456 C37.8607934,44.2016992 36.2559801,44.8485655 34.4082864,45 L34.4082864,45 L34.4082864,42.1339297 C35.4579941,41.9849044 36.4002174,41.63867 37.1895352,41.0181327 L37.1895352,41.0181327 Z M30.3863366,40.9259641 C31.1643859,41.5747233 32.0838987,41.9362733 33.1032681,42.1038837 L33.1032681,42.1038837 L33.1032681,44.9782141 C31.2874731,44.8198962 29.7157719,44.1253624 28.3456908,42.9698138 C29.0335918,42.2807868 29.7017295,41.6113774 30.3863366,40.9259641 Z M42.2044513,37.2291378 C42.0761633,39.1053771 41.3849684,40.7271031 40.1849557,42.1299373 C39.5012154,41.4459008 38.8341179,40.7785564 38.147257,40.0915944 C38.7824559,39.2843451 39.1929775,38.3287589 39.3153712,37.2291378 L39.3153712,37.2291378 Z M28.4001959,37.2328721 C28.5121878,38.2593572 28.8927178,39.1887865 29.492204,39.9967241 L29.492204,39.9967241 L27.4200063,42.0536522 C26.2739092,40.665273 25.6187737,39.0693597 25.4937796,37.2328721 L25.4937796,37.2328721 Z M24.3883185,12.6616755 C25.4851808,12.4216174 26.5706012,13.1096119 26.8124414,14.1985637 L26.8124414,14.1985637 L29.7682659,27.5005371 C26.2301179,29.0541176 23.7600541,32.5668821 23.7600541,36.6544094 C23.7600541,37.7628068 23.9443381,38.8278389 24.2794471,39.8242092 L24.2794471,39.8242092 L16.3467422,41.5610598 C15.2498799,41.8011179 14.1644595,41.1131234 13.9226193,40.0243437 L13.9226193,40.0243437 L9.04819592,18.0878495 C8.80618237,16.9988977 9.49928422,15.9216476 10.5961465,15.6814174 L10.5961465,15.6814174 Z M33.9047525,32.2851327 C36.3539617,32.3347408 38.336472,34.3482041 38.2926645,36.74136 C38.2478097,39.1848177 36.2092746,41.1557846 33.7822309,41.102534 C31.4250001,41.1223078 29.3536529,39.1385053 29.4096777,36.5623546 C29.4613392,34.1811671 31.5105209,32.2367388 33.9047525,32.2851327 Z M27.5170545,31.2394381 L29.5495522,33.2972267 C28.9474655,34.047688 28.5454387,34.9421841 28.4103896,35.9597208 L28.4103896,35.9597208 L25.5053602,35.9597208 C25.6606926,34.1559292 26.3548347,32.5990792 27.5170545,31.2394381 L27.5170545,31.2394381 Z M40.1834821,31.2507957 C41.3444884,32.5816986 42.0112392,34.1542084 42.1882419,35.9597208 L42.1882419,35.9597208 L39.2868531,35.9597208 C39.1403621,34.9435608 38.7556715,34.0475159 38.1248066,33.2710698 C38.8050797,32.6033813 39.4789383,31.9420599 40.1834821,31.2507957 Z M34.4082864,28.343167 C36.271756,28.495634 37.8881847,29.1523091 39.2740416,30.3199037 L39.2740416,30.3199037 L37.2259413,32.352912 C36.4295156,31.7144779 35.4739434,31.3604997 34.4082864,31.2092373 L34.4082864,31.2092373 Z M33.1033202,28.3648152 L33.1033202,31.2391456 C32.1241708,31.4003889 31.2379435,31.7433537 30.4796575,32.3453059 L30.4796575,32.3453059 L28.426703,30.3074791 C29.7777142,29.1920263 31.3227176,28.5200356 33.1033202,28.3648152 L33.1033202,28.3648152 Z M19.5555021,20.7329631 C18.4855109,21.8377467 17.5568099,23.0185917 16.8325029,24.34829 C16.3937233,25.1539905 16.050813,25.9961729 16.0034851,26.9288719 C15.9358739,28.2565051 16.7600375,29.2931432 18.0742959,29.5555724 C19.0170392,29.7440051 19.7902344,29.5013657 20.3725578,28.7233709 C20.409484,28.6741546 20.4547315,28.6313056 20.5547615,28.5201389 C20.381746,29.4148071 20.0436899,30.1554595 19.621033,30.9126321 C20.9890336,30.6230136 22.3010383,30.3452689 23.6336731,30.0632222 C23.2989108,29.7779058 22.9683092,29.5254575 22.6737669,29.2366995 C22.3878928,28.9560293 22.1389447,28.6380169 21.873874,28.3363524 L21.873874,28.3363524 L21.9255359,28.2604631 C22.9312097,28.9173103 23.863378,28.747979 24.7315756,28.0253954 C25.5404833,27.3522002 25.873512,26.2419098 25.470445,25.3004346 C25.1606469,24.5768185 24.6986368,23.9788242 24.1246347,23.460161 C22.7923466,22.2567729 21.2253262,21.4361011 19.5555021,20.7329631 Z M27.0970327,7.22935804 C27.5366791,6.20321711 28.7309709,5.72516588 29.7647293,6.16157262 L29.7647293,6.16157262 L42.7615159,11.6483204 C43.7952743,12.0848993 44.2768743,13.2703906 43.837228,14.2963595 L43.837228,14.2963595 L38.1370807,27.6003979 C36.8337441,26.9900135 35.3781955,26.6472209 33.8416869,26.6472209 C33.0447411,26.6472209 32.2705058,26.7416954 31.5271289,26.9153288 L31.5271289,26.9153288 L30.9708098,24.4114967 C31.1795378,24.3791448 31.3875724,24.343007 31.5933532,24.2974046 C32.9617006,23.9947077 34.2199631,23.4705377 35.1800426,22.3967293 C36.3192052,21.1231307 36.1623125,19.3339663 34.8102612,18.5057227 C34.0100215,18.0156256 33.1669614,18.0285319 32.3084721,18.4644224 C32.2689455,18.3527394 32.2389538,18.2653204 32.2070552,18.1782456 C31.8587707,17.2250686 30.9581543,16.5732118 29.9762311,16.5632309 C29.7206953,16.5606496 29.4769482,16.5943782 29.2482835,16.6594262 L29.2482835,16.6594262 L28.3081406,12.4285524 C28.0661271,11.3396005 26.98088,10.651606 25.883671,10.8918362 L25.883671,10.8918362 L25.4908324,10.9778785 Z M12.9781423,17.381614 C12.6035068,17.7682883 12.2784527,18.1816357 12.0251706,18.6471247 C11.8715718,18.9289994 11.7514318,19.2236084 11.7349624,19.550053 C11.7113852,20.0148537 11.9998598,20.3774361 12.4596162,20.4693293 C12.7896977,20.5352378 13.0601426,20.4504 13.2641899,20.1781621 C13.2770187,20.1609536 13.2927946,20.1459822 13.3278138,20.106919 C13.2673104,20.4201131 13.1489041,20.6792727 13.0010261,20.9442831 C13.4798524,20.8429252 13.9390887,20.7458694 14.4054329,20.6470928 C14.2882401,20.5472837 14.1724342,20.4588322 14.0696304,20.3578185 C13.9694271,20.2595581 13.8822259,20.1482193 13.7894772,20.0427314 L13.7894772,20.0427314 L13.8076802,20.0162304 C14.1596054,20.2461355 14.4858729,20.1867663 14.7897767,19.9338018 C15.0727038,19.6982179 15.1893765,19.3096507 15.0482597,18.9801086 C14.9399084,18.726972 14.7779881,18.517717 14.5772348,18.3361677 C14.111064,17.9150765 13.5625461,17.6276951 12.9781423,17.381614 Z M29.5410922,8.47714403 C29.0756148,8.47232566 28.6959517,8.73664772 28.5307376,9.17494739 C28.4182256,9.47317013 28.3943016,9.77776001 28.4423229,10.090782 C28.5459935,10.7665586 28.8783287,11.3363309 29.2859031,11.8687609 C29.3269899,11.9221072 29.4285801,11.9625471 29.4972315,11.9561799 C29.7482599,11.9336368 30.0006752,11.9036941 30.2463294,11.8491433 C30.8428685,11.7173264 31.3915597,11.488798 31.8102293,11.0205555 C32.3067384,10.4650662 32.2384338,9.68517846 31.6488291,9.3241448 C31.3001978,9.11024355 30.9324967,9.11592235 30.5580345,9.30590383 C30.541045,9.25737595 30.5278695,9.21917315 30.5138272,9.18131452 C30.3619619,8.76555794 29.9692967,8.48144614 29.5410922,8.47714403 Z" id="icon-poker-hover" fill="#000000"></path>
                        </g>
                    </g>
                </g>
            </g>
        </g>
    </g>
</svg>