<?xml version="1.0" encoding="UTF-8"?>
<svg width="53px" height="50px" viewBox="0 0 53 50" version="1.1" xmlns="http://www.w3.org/2000/svg" xmlns:xlink="http://www.w3.org/1999/xlink">
    <!-- Generator: Sketch 63.1 (92452) - https://sketch.com -->
    <title>hover-slot@1x</title>
    <desc>Created with Sketch.</desc>
    <defs>
        <linearGradient x1="72.1879135%" y1="20.223106%" x2="21.2411557%" y2="79.6271471%" id="linearGradient-1">
            <stop stop-color="#8F7249" offset="0%"></stop>
            <stop stop-color="#CDAE74" offset="31.9863809%"></stop>
            <stop stop-color="#FFE0A7" offset="65.904772%"></stop>
            <stop stop-color="#906F40" offset="100%"></stop>
        </linearGradient>
        <linearGradient x1="77.5058962%" y1="84.6020882%" x2="12.9053656%" y2="16.6181804%" id="linearGradient-2">
            <stop stop-color="#946F3B" offset="0%"></stop>
            <stop stop-color="#FFE0A7" offset="53.1276394%"></stop>
            <stop stop-color="#946F3B" offset="100%"></stop>
        </linearGradient>
    </defs>
    <g id="Symbols" stroke="none" stroke-width="1" fill="none" fill-rule="evenodd">
        <g id="nav" transform="translate(-221.000000, -26.000000)">
            <g id="NAV-/-hover">
                <g id="SLOT" transform="translate(221.000000, 5.000000)">
                    <g id="hover-slot">
                        <g transform="translate(0.000000, 21.000000)">
                            <path d="M30.95,0.5 L3.3075,0.5 C2.53223028,0.5 1.83035528,0.814240141 1.32229771,1.32229771 C0.814240141,1.83035528 0.5,2.53223028 0.5,3.3075 L0.5,27.95 C0.5,33.9008682 2.91206591,39.2883682 6.81184887,43.1881511 C10.7116318,47.0879341 16.0991318,49.5 22.05,49.5 L49.6925,49.5 C50.4677697,49.5 51.1696447,49.1857599 51.6777023,48.6777023 C52.1857599,48.1696447 52.5,47.4677697 52.5,46.6925 L52.5,22.05 C52.5,16.0991318 50.0879341,10.7116318 46.1881511,6.81184887 C42.2883682,2.91206591 36.9008682,0.5 30.95,0.5 Z" id="Rectangle" stroke="url(#linearGradient-2)" fill="url(#linearGradient-1)"></path>
                            <path d="M19.0010094,10.5534607 C25.2149635,10.5809926 31.4289175,10.5633886 37.6428716,10.5696841 C38.7755247,10.5707333 39.568544,11.3999871 39.5803594,12.5524085 C39.5853403,13.0323801 39.5812861,13.512235 39.5812861,14.0497985 L39.5812861,14.0497985 L41.7997941,14.0497985 L41.7997362,25.711901 L41.7997362,25.711901 L41.7902955,36.6077627 C41.7896005,37.0346891 41.8942012,37.2915211 42.2691652,37.5193239 C43.2863289,37.9524292 44,38.966117 44,40.1475676 C44,41.7229515 42.7311227,43 41.1658189,43 L41.1658189,43 L15.6122013,43 C14.0470132,43 12.7780201,41.7229515 12.7780201,40.1475676 C12.7780201,39.0325692 13.4139646,38.0677296 14.3403122,37.5986003 C14.9463708,37.1484739 14.9146315,36.5847959 14.9094189,35.9304164 C14.8932017,33.8717965 14.903627,31.8128269 14.903627,29.7540905 L14.903627,29.7540905 L14.903627,29.0725472 L11.8573485,29.0725472 C10.2793026,29.0725472 9,27.7850062 9,26.1967982 C9,24.6085901 10.2793026,23.3210492 11.8573485,23.3210492 L11.8573485,23.3210492 L14.9161374,23.3210492 L14.9161374,14.0474669 C15.9200957,14.0474669 16.1313822,14.0502649 17.1370781,14.0502649 L17.1370781,14.0502649 L17.134993,12.3960709 C17.1270003,11.4803127 17.9203671,10.5486992 19.0010094,10.5534607 Z M40.7062939,39.0121673 L16.0403344,39.0121673 C15.6133596,39.0121673 15.2671232,39.3606334 15.2671232,39.7903577 L15.2671232,39.7903577 L15.2671232,40.1313626 C15.2671232,40.5612035 15.6133596,40.9094364 16.0403344,40.9094364 L16.0403344,40.9094364 L40.7062939,40.9094364 C41.1332687,40.9094364 41.4793893,40.5612035 41.4793893,40.1313626 L41.4793893,40.1313626 L41.4793893,39.7903577 C41.4793893,39.3606334 41.1332687,39.0121673 40.7062939,39.0121673 L40.7062939,39.0121673 Z M40.839738,32.6237772 L15.8816379,32.6237772 L15.8816379,33.5325404 L40.839738,33.5325404 L40.839738,32.6237772 Z M39.8899914,17.6283089 L16.7930425,17.6283089 L16.7930425,31.5422381 L39.8899914,31.5422381 L39.8899914,17.6283089 Z M31.1924597,19.1128748 C31.126201,19.8359216 31.1367421,20.553489 30.9843008,21.2340997 C30.4407941,23.6624037 29.8428441,26.07835 29.2630805,28.4984933 C29.1507187,28.967506 29.0465813,29.440366 28.8970359,29.897604 C28.8574197,30.0190833 28.6664047,30.1653947 28.5396791,30.1705244 C27.8699102,30.1975716 27.1982879,30.1832319 26.4938838,30.1832319 C27.2281738,27.1863533 27.9476368,24.2507973 28.6794942,21.2644112 L28.6794942,21.2644112 L27.7034526,21.2644112 L27.7034526,22.6679521 L25.586881,22.6679521 L25.586881,19.1128748 Z M39.1806642,19.1145303 C39.1205448,19.8123952 39.1376887,20.5109596 38.9896491,21.1722175 C38.4417407,23.619408 37.8401997,26.0545904 37.2566135,28.4936201 C37.1443675,28.9627494 37.0402302,29.4354929 36.8913797,29.8928474 C36.851416,30.0153759 36.6629494,30.1650683 36.5373822,30.170198 C35.866455,30.1977115 35.1937901,30.1832552 34.4867218,30.1832552 C35.2200851,27.1902239 35.9393164,24.2546679 36.6770815,21.243916 L36.6770815,21.243916 L35.6996498,21.243916 L35.6996498,22.6664598 L33.5814565,22.6664598 L33.5814565,19.1145303 Z M23.2012898,19.1114059 C23.1338727,19.8394658 23.1432555,20.5572663 22.9906983,21.2383433 C22.4470758,23.6666473 21.8493574,26.0827102 21.2695938,28.5027369 C21.157232,28.9718662 21.0486929,29.4429775 20.9054026,29.9026637 C20.8699565,30.0166817 20.7085958,30.1659077 20.6005199,30.1696384 C19.9121013,30.1938876 19.2224085,30.1821127 18.501208,30.1821127 C19.2363089,27.1825527 19.9557718,24.2473465 20.6872818,21.2623594 L20.6872818,21.2623594 L19.7076492,21.2623594 L19.7076492,22.6691645 L17.5924676,22.6691645 L17.5924676,19.1114059 Z M12.4836649,8.00065238 L12.6544685,8.01352399 C13.8050763,8.12346162 14.7052448,9.09797761 14.7052448,10.2846744 C14.7052448,11.1878417 14.1827046,11.9660321 13.4265214,12.3360661 C13.3662862,12.4692037 13.3413812,12.6212277 13.3419604,12.8036799 C13.3509957,15.7343394 13.3355894,18.6651155 13.3279442,21.5958916 L13.3279442,21.5958916 L13.3278283,22.3402731 L11.5265647,22.3402731 L11.5265647,21.7214513 C11.5264489,18.6934451 11.5327041,15.6654389 11.512896,12.6375493 C11.5123168,12.5457986 11.4877594,12.4383092 11.4480273,12.3357163 C10.6921916,11.9655658 10.1699989,11.1874919 10.1699989,10.2846744 C10.1699989,9.123859 11.0318254,8.16764651 12.1461762,8.02343354 C12.3134447,7.99638632 12.4830299,7.99230592 12.6544685,8.01352399 Z M40.839738,15.6553775 L15.8816379,15.6553775 L15.8816379,16.5640241 L40.839738,16.5640241 L40.839738,15.6553775 Z" id="icon-slot-hover" fill="#000000"></path>
                        </g>
                    </g>
                </g>
            </g>
        </g>
    </g>
</svg>